<svg xmlns="http://www.w3.org/2000/svg" xml:space="preserve" width="800" height="800" viewBox="0 0 97.766 97.766" fill="currentColor">
  <path d="m95.806 49.958-8.622-1.912a38.002 38.002 0 0 0-3.188-14.371l6.697-5.424a2.5 2.5 0 0 0 .37-3.516l-9.142-11.292a2.501 2.501 0 0 0-3.518-.37l-6.535 5.292a37.962 37.962 0 0 0-13.233-6.409v-8.31a2.5 2.5 0 0 0-2.5-2.5h-14.53a2.5 2.5 0 0 0-2.5 2.5v8.317a37.953 37.953 0 0 0-13.491 6.618l-6.595-5.247a2.501 2.501 0 0 0-3.514.401l-9.046 11.37a2.497 2.497 0 0 0 .401 3.512l6.763 5.378a38.026 38.026 0 0 0-3.058 14.379l-8.628 1.992a2.499 2.499 0 0 0-1.873 2.998l3.27 14.159a2.5 2.5 0 0 0 2.998 1.874l8.885-2.051a38.197 38.197 0 0 0 9.068 11.068l-3.995 8.373a2.504 2.504 0 0 0 1.18 3.333l13.115 6.255a2.496 2.496 0 0 0 1.911.099 2.503 2.503 0 0 0 1.422-1.279l4.043-8.479c4.663.852 9.508.834 14.144-.051l4.113 8.432a2.499 2.499 0 0 0 3.343 1.15l13.06-6.369a2.5 2.5 0 0 0 1.153-3.344l-4.062-8.324a38.182 38.182 0 0 0 8.984-11.158l8.883 1.97a2.498 2.498 0 0 0 2.981-1.899l3.146-14.186a2.5 2.5 0 0 0-1.9-2.979zm-30.494-.933c0 9.062-7.371 16.433-16.433 16.433-9.061 0-16.433-7.371-16.433-16.433 0-9.061 7.372-16.433 16.433-16.433 9.062 0 16.433 7.372 16.433 16.433z" />
</svg>
